<?xml version="1.0" encoding="iso-8859-1"?>
<!-- Generator: Adobe Illustrator 19.0.0, SVG Export Plug-In . SVG Version: 6.00 Build 0)  -->
<svg version="1.1" id="Capa_1" xmlns="http://www.w3.org/2000/svg" xmlns:xlink="http://www.w3.org/1999/xlink" x="0px" y="0px"
	 viewBox="0 0 505.748 505.748" style="enable-background:new 0 0 505.748 505.748;" xml:space="preserve">
<g>
	<g>
		<path d="M99.858,218.667c-1.185-0.558-2.479-0.848-3.789-0.846c-1.05,0.001-2.092,0.185-3.079,0.544
			c-4.034,1.464-6.471,5.574-5.821,9.816c0.65,4.242,4.207,7.433,8.494,7.622c4.287,0.189,8.11-2.678,9.131-6.846
			C105.814,224.789,103.747,220.48,99.858,218.667z"/>
	</g>
</g>
<g>
	<g>
		<path d="M317.858,397.413c-1.185-0.558-2.479-0.847-3.789-0.846c-1.05,0.001-2.092,0.185-3.079,0.544
			c-4.034,1.464-6.471,5.574-5.821,9.816c0.65,4.242,4.207,7.433,8.494,7.622s8.11-2.678,9.131-6.846
			C323.815,403.535,321.747,399.226,317.858,397.413z"/>
	</g>
</g>
<g>
	<g>
		<path d="M58.42,97.114c-1.278-3.561-4.665-5.927-8.448-5.903c-3.922,0.003-7.388,2.549-8.564,6.29
			c-1.176,3.741,0.21,7.813,3.425,10.059c3.214,2.246,7.514,2.149,10.623-0.242C58.565,104.928,59.765,100.797,58.42,97.114z"/>
	</g>
</g>
<g>
	<g>
		<path d="M276.428,275.87c-1.276-3.569-4.668-5.94-8.456-5.913c-3.92,0.006-7.383,2.552-8.557,6.292s0.211,7.809,3.423,10.055
			c3.212,2.246,7.51,2.15,10.619-0.237C276.566,283.68,277.769,279.553,276.428,275.87z"/>
	</g>
</g>
<g>
	<g>
		<path d="M362.419,407.071l-67.59-185.698l-50.956,18.546c-0.099,0.044-0.202,0.07-0.303,0.11l-168.208,61.22l67.592,185.704
			c2.445,6.716,7.459,12.186,13.937,15.205c6.478,3.02,13.891,3.342,20.607,0.896l168.807-61.439
			C360.28,436.51,367.487,421.059,362.419,407.071z M142.147,353.417c-12.077,4.391-25.573-0.36-32.237-11.347
			s-4.639-25.152,4.836-33.832c9.475-8.68,23.762-9.459,34.125-1.861c10.363,7.599,13.916,21.459,8.486,33.106
			C154.331,345.957,148.861,350.968,142.147,353.417z M203.437,466.097c-5.432,11.66-18.344,17.859-30.84,14.805
			c-12.495-3.054-21.094-14.509-20.536-27.36c0.558-12.851,10.116-23.518,22.83-25.477c12.713-1.959,25.04,5.335,29.441,17.422
			C206.797,452.201,206.475,459.622,203.437,466.097z M234.244,396.364c-13.984,5.083-29.441-2.131-34.526-16.114
			c-5.085-13.983,2.127-29.441,16.109-34.528c13.982-5.087,29.441,2.122,34.531,16.103l0.009,0.009
			C255.418,375.82,248.21,391.258,234.244,396.364z M248.123,297.15c-7.365-8.034-9.166-19.713-4.562-29.592
			c4.604-9.879,14.706-16.012,25.594-15.538c10.889,0.473,20.42,7.459,24.15,17.7c2.481,6.713,2.176,14.139-0.847,20.626
			c-3.023,6.487-8.514,11.496-15.249,13.913C266.968,307.99,255.489,305.184,248.123,297.15z M338.489,416.939
			c-5.431,11.655-18.338,17.85-30.828,14.797c-12.49-3.053-21.084-14.504-20.526-27.349c0.558-12.845,10.112-23.508,22.82-25.467
			s25.029,5.332,29.429,17.414C341.849,403.046,341.527,410.466,338.489,416.939z"/>
	</g>
</g>
<g>
	<g>
		<path d="M193.472,47.97l-0.009-0.009c-0.809-2.238-2.476-4.061-4.632-5.068c-2.156-1.006-4.624-1.113-6.859-0.296
			c-4.661,1.703-7.066,6.856-5.377,11.522c1.706,4.649,6.853,7.04,11.506,5.345C192.754,57.769,195.157,52.627,193.472,47.97z"/>
	</g>
</g>
<g>
	<g>
		<path d="M187.455,451.636c-0.811-2.243-2.485-4.069-4.65-5.07c-1.185-0.558-2.479-0.848-3.789-0.847
			c-3.923-0.004-7.396,2.538-8.578,6.279c-1.183,3.741,0.198,7.817,3.41,10.069c3.212,2.252,7.515,2.161,10.628-0.226
			C187.59,459.454,188.795,455.323,187.455,451.636z"/>
	</g>
</g>
<g>
	<g>
		<path d="M420.543,310.902c-2.086-2.975-5.758-4.401-9.305-3.612s-6.269,3.637-6.897,7.216c-0.848,4.881,2.411,9.529,7.289,10.398
			c3.578,0.63,7.184-0.958,9.135-4.023C422.716,317.816,422.628,313.877,420.543,310.902z"/>
	</g>
</g>
<g>
	<g>
		<path d="M221.095,18.794c-2.445-6.716-7.459-12.186-13.937-15.205c-6.478-3.02-13.891-3.342-20.607-0.895L17.735,64.133
			C3.755,69.229-3.453,84.688,1.629,98.672l67.59,185.7l219.467-79.876L221.095,18.794z M24.663,109.412
			c-5.09-13.984,2.119-29.447,16.103-34.538s29.447,2.117,34.54,16.1l0.009,0.009c5.06,13.985-2.146,29.429-16.115,34.535
			C45.215,130.607,29.753,123.396,24.663,109.412z M120.489,238.193c-5.431,11.655-18.338,17.85-30.828,14.797
			c-12.49-3.053-21.084-14.504-20.526-27.349c0.558-12.846,10.112-23.508,22.82-25.467c12.708-1.959,25.029,5.332,29.429,17.414
			C123.849,224.3,123.527,231.72,120.489,238.193z M194.244,76.36c-12.075,4.388-25.569-0.364-32.23-11.351
			s-4.634-25.148,4.841-33.826c9.475-8.677,23.76-9.454,34.12-1.855c10.36,7.599,13.91,21.457,8.479,33.101
			C206.429,68.904,200.958,73.914,194.244,76.36z M240.331,202.974c-12.078,4.392-25.576-0.359-32.241-11.348
			c-6.665-10.988-4.64-25.154,4.837-33.836c9.476-8.681,23.765-9.46,34.129-1.86c10.364,7.6,13.917,21.462,8.486,33.109
			C252.515,195.514,247.045,200.525,240.331,202.974z"/>
	</g>
</g>
<g>
	<g>
		<path d="M239.559,174.579c-1.275-3.567-4.667-5.939-8.456-5.912c-3.921,0.005-7.386,2.552-8.561,6.293
			c-1.175,3.741,0.211,7.812,3.424,10.058c3.213,2.247,7.513,2.151,10.622-0.238C239.697,182.391,240.9,178.263,239.559,174.579z"/>
	</g>
</g>
<g>
	<g>
		<path d="M233.472,367.966c-0.811-2.239-2.481-4.061-4.641-5.062c-3.883-1.812-8.506-0.627-11.039,2.829
			c-2.534,3.456-2.273,8.22,0.623,11.379s7.62,3.831,11.282,1.607C233.359,376.494,234.94,371.992,233.472,367.966z"/>
	</g>
</g>
<g>
	<g>
		<path d="M136.726,319.957c-1.185-0.558-2.479-0.848-3.789-0.846c-1.05,0.001-2.092,0.185-3.079,0.544
			c-4.034,1.464-6.471,5.574-5.821,9.816s4.207,7.433,8.494,7.622c4.287,0.189,8.11-2.677,9.131-6.846
			C142.682,326.078,140.616,321.77,136.726,319.957z"/>
	</g>
</g>
<g>
	<g>
		<path d="M459.559,69.728c-4.003-0.706-7.982,1.364-9.701,5.048c-1.719,3.684-0.749,8.063,2.364,10.677
			c3.113,2.614,7.594,2.812,10.925,0.481c1.96-1.358,3.291-3.448,3.693-5.798l0.009-0.009
			C467.705,75.243,464.443,70.589,459.559,69.728z"/>
	</g>
</g>
<g>
	<g>
		<path d="M318.024,44.772c-4.004-0.707-7.984,1.363-9.703,5.047c-1.72,3.684-0.75,8.065,2.364,10.679
			c3.114,2.614,7.596,2.811,10.927,0.48c1.96-1.358,3.291-3.448,3.693-5.798C326.163,50.297,322.906,45.641,318.024,44.772z"/>
	</g>
</g>
<g>
	<g>
		<path d="M326.552,256.017l52.744,144.913c8.447,23.308-3.564,49.056-26.851,57.561l-55.865,20.334l105.777,18.635
			c14.671,2.498,28.619-7.281,31.272-21.925l34.283-194.59L326.552,256.017z M439.726,320.737
			c-2.583,14.657-16.56,24.445-31.217,21.862c-14.658-2.583-24.445-16.56-21.862-31.217c2.589-14.653,16.562-24.436,31.217-21.855
			c14.655,2.581,24.445,16.55,21.871,31.206L439.726,320.737z"/>
	</g>
</g>
<g>
	<g>
		<path d="M500.893,48.527c-4.078-5.868-10.342-9.852-17.386-11.057L306.534,6.295c-7.026-1.244-14.259,0.354-20.106,4.444
			c-5.847,4.09-9.829,10.336-11.07,17.363l-10.366,58.782l54.465,149.639l151.572,26.73L505.314,68.65
			C506.599,61.62,505.006,54.37,500.893,48.527z M343.007,58.294c-2.273,12.86-13.432,22.245-26.491,22.281
			c-1.588-0.002-3.173-0.141-4.737-0.417c-14.656-2.588-24.439-16.566-21.853-31.222s16.562-24.441,31.219-21.857
			C335.802,29.663,345.588,43.638,343.007,58.294z M373.335,154.477c-14.888,0-26.957-12.069-26.957-26.957
			s12.069-26.957,26.957-26.957s26.957,12.069,26.957,26.957S388.223,154.477,373.335,154.477z M434.616,238.211
			c-14.888,0-26.957-12.069-26.957-26.957s12.069-26.957,26.957-26.957s26.957,12.069,26.957,26.957
			S449.504,238.211,434.616,238.211z M484.542,83.25c-2.273,12.857-13.427,22.241-26.482,22.281
			c-1.588-0.002-3.173-0.141-4.737-0.417c-14.656-2.584-24.443-16.56-21.86-31.217s16.559-24.444,31.216-21.861
			C477.335,54.619,487.124,68.593,484.542,83.25z"/>
	</g>
</g>
<g>
	<g>
		<path d="M374.919,118.654c-0.521-0.092-1.05-0.139-1.579-0.14c-4.82-0.003-8.787,3.789-9.002,8.604
			c-0.215,4.815,3.399,8.946,8.2,9.373c4.801,0.427,9.087-3.001,9.725-7.779C382.9,123.935,379.664,119.502,374.919,118.654z"/>
	</g>
</g>
<g>
	<g>
		<path d="M441.963,206.11c-1.36-1.953-3.445-3.282-5.79-3.689c-0.518-0.091-1.044-0.136-1.57-0.136
			c-4.131,0.006-7.723,2.833-8.701,6.846c-0.978,4.014,0.913,8.176,4.578,10.081c3.665,1.905,8.158,1.06,10.881-2.047
			C444.084,214.058,444.332,209.494,441.963,206.11z"/>
	</g>
</g>
<g>
</g>
<g>
</g>
<g>
</g>
<g>
</g>
<g>
</g>
<g>
</g>
<g>
</g>
<g>
</g>
<g>
</g>
<g>
</g>
<g>
</g>
<g>
</g>
<g>
</g>
<g>
</g>
<g>
</g>
</svg>
